<?xml version="1.0" encoding="UTF-8"?>
<svg width="10px" height="14px" viewBox="0 0 10 14" version="1.1" xmlns="http://www.w3.org/2000/svg" xmlns:xlink="http://www.w3.org/1999/xlink">
    <!-- Generator: Sketch 52.2 (67145) - http://www.bohemiancoding.com/sketch -->
    <title>分组 7</title>
    <desc>Created with Sketch.</desc>
    <g id="页面-1" stroke="none" stroke-width="1" fill="none" fill-rule="evenodd">
        <g id="1-2-首页-党群服务中心-列表展示" transform="translate(-425.000000, -1550.000000)">
            <g id="画板/党群服务中心" transform="translate(120.000000, 1458.000000)">
                <g id="分组-5" transform="translate(0.000000, 0.000000)">
                    <g id="分组-7" transform="translate(302.000000, 91.000000)">
                        <rect id="矩形" x="0" y="-3.41060513e-13" width="16" height="16"></rect>
                        <path d="M7.97511767,1.37955426 C4.6693403,1.37955426 2.97511767,4.2562591 2.97511767,6.57855621 C2.97511767,9.72895927 7.97511767,14.3795543 7.97511767,14.3795543 C7.97511767,14.3795543 12.9751177,9.72895927 12.9751177,6.57855621 C12.9751177,4.2562591 11.280895,1.37955426 7.97511767,1.37955426 Z M7.97511767,8.37878653 C6.87111767,8.37878653 5.97511767,7.48267188 5.97511767,6.37853062 C5.97511767,5.27438936 6.87111767,4.37827471 7.97511767,4.37827471 C9.07911767,4.37827471 9.97511767,5.27438936 9.97511767,6.37853062 C9.97511767,7.48267188 9.07911767,8.37878653 7.97511767,8.37878653 Z" id="Shape" fill="#000000" fill-rule="nonzero" opacity="0.65"></path>
                    </g>
                </g>
            </g>
        </g>
    </g>
</svg>